<?xml version="1.0" standalone="no"?><!DOCTYPE svg PUBLIC "-//W3C//DTD SVG 1.1//EN" "http://www.w3.org/Graphics/SVG/1.1/DTD/svg11.dtd"><svg t="1557990456442" class="icon" style="" viewBox="0 0 1024 1024" version="1.1" xmlns="http://www.w3.org/2000/svg" p-id="1475" xmlns:xlink="http://www.w3.org/1999/xlink" width="200" height="200"><defs><style type="text/css"></style></defs><path d="M841.728 574.464c-32.256-1.536-101.376-3.584-173.056 5.12-57.856 7.168-105.472 19.456-142.336 36.864-7.68 3.584-14.336 7.168-20.992 11.264 24.064-40.96 81.408-119.296 165.888-119.296h3.584c87.552 2.56 143.872 44.544 166.912 66.048z" fill="#9CD5D6" p-id="1476"></path><path d="M498.688 650.24c93.184-70.144 292.864-64 347.136-60.928-24.064 28.16-96.256 102.4-179.2 107.52-83.456 4.608-146.432-32.256-167.936-46.592zM344.576 645.12c-43.008 4.096-118.272 0.512-172.032-60.928-62.976-71.168-41.472-168.448-29.184-206.336 12.288 25.088 38.4 76.8 75.776 131.072 30.72 45.056 73.728 97.792 125.44 136.192z" fill="#9CD5D6" p-id="1477"></path><path d="M372.736 641.024c-2.048 0.512-4.608 1.024-7.68 1.536-110.08-75.264-187.392-225.28-209.92-271.872 39.424 12.8 143.872 51.2 175.616 116.736 33.28 68.608 40.448 134.144 41.984 153.6zM556.032 122.368c41.984-17.408 80.896-24.064 103.936-26.624-25.6 23.04-76.8 72.192-125.44 137.728C476.16 312.32 411.136 429.568 416.256 556.544c-73.728-96.768-40.448-236.544-38.912-243.2 30.208-89.6 90.624-154.112 178.688-190.976z" fill="#9CD5D6" p-id="1478"></path><path d="M865.28 578.56l3.584 4.608-3.584 4.608c-3.584 4.608-90.112 117.248-198.656 123.904-5.632 0.512-10.752 0.512-16.384 0.512-84.48 0-145.408-38.912-163.84-51.712-15.36 14.336-27.136 31.232-32.768 51.712 32.768 163.84 70.144 224.768 70.656 225.28l-12.288 7.68c-2.048-3.072-42.496-69.12-76.8-251.392-26.112-7.68-50.688-19.968-73.728-34.816-10.752 1.536-25.6 3.072-42.496 3.072-5.12 0-9.728 0-15.36-0.512-57.856-3.584-107.52-26.624-142.848-66.56-35.328-40.448-51.2-94.208-45.568-156.16 4.096-46.08 18.944-80.384 19.456-81.408l2.56-5.632 6.144 1.536c6.656 1.536 158.208 42.496 199.68 128.512 40.96 84.992 43.52 161.792 43.52 165.376v5.632l-5.12 1.536c16.384 9.728 33.28 17.92 51.2 23.552-4.608-27.136-9.728-56.832-13.824-89.088-0.512-2.048-0.512-4.608-1.024-6.656-39.936-43.008-61.952-103.424-64-175.104-1.536-53.76 8.704-94.72 9.216-96.256v-0.512c39.424-117.76 123.904-173.568 187.392-200.192 68.608-28.672 127.488-29.184 130.048-29.184h6.144l1.024 6.144c20.48 141.824-17.408 263.68-19.456 269.312-26.112 96.768-90.624 154.112-140.288 184.832-42.496 26.112-80.384 38.4-95.744 42.496 0 1.024 0 2.048 0.512 3.072 5.12 36.352 10.24 69.12 15.872 99.328 7.168-13.824 17.408-26.624 30.208-37.888v-0.512c0.512-1.536 17.408-39.424 49.664-76.8 43.52-50.688 93.696-76.8 146.432-75.264 124.928 2.048 187.904 79.36 190.464 82.944z m-196.608 1.024c71.68-8.704 140.8-6.656 173.056-5.12-23.552-21.504-79.36-63.488-166.912-65.536h-3.584c-84.48 0-141.824 78.336-165.888 119.296 6.656-4.096 13.312-7.68 20.992-11.264 36.864-17.92 84.992-30.208 142.336-37.376z m176.64 9.728c-54.272-3.072-253.44-9.216-347.136 60.928 21.504 14.848 84.992 51.712 167.424 46.592 83.456-5.12 155.648-79.872 179.712-107.52z m-190.464-238.08c0.512-1.024 36.864-114.176 20.48-249.856-22.016 19.456-77.824 70.656-129.536 141.312-58.88 78.848-124.416 198.144-114.176 325.632 15.872-4.608 51.2-16.384 89.6-40.448C568.32 498.176 629.76 443.904 654.848 351.232z m5.12-255.488c-23.04 2.56-61.44 9.216-103.936 26.624-88.064 36.864-148.48 100.864-178.688 190.976-1.536 6.656-34.304 145.92 38.912 243.2-5.12-126.976 59.904-244.224 117.76-323.072 48.64-65.536 100.352-114.688 125.952-137.728zM365.056 642.56c3.072-0.512 5.632-1.024 7.68-1.536-1.536-19.456-8.704-84.992-41.984-153.6-31.232-65.024-136.192-103.936-175.616-116.736 22.528 46.592 99.84 196.608 209.92 271.872z m-193.024-57.856c54.272 61.44 129.536 65.024 172.032 60.928-51.712-38.912-94.72-91.136-125.44-136.192-37.376-54.272-64-105.984-75.776-131.072-11.776 37.888-33.792 134.656 29.184 206.336z" fill="#479CB2" p-id="1479"></path><path d="M675.328 101.376c16.384 135.68-19.968 248.832-20.48 249.856v0.512C629.76 443.904 568.32 498.176 521.216 527.872c-38.4 24.064-74.24 35.84-89.6 40.448-10.24-127.488 55.808-246.784 114.176-325.632 52.224-70.656 107.52-121.856 129.536-141.312z" fill="#9CD5D6" p-id="1480"></path></svg>