<?xml version="1.0" standalone="no"?><!DOCTYPE svg PUBLIC "-//W3C//DTD SVG 1.1//EN" "http://www.w3.org/Graphics/SVG/1.1/DTD/svg11.dtd"><svg t="1557990654707" class="icon" style="" viewBox="0 0 1024 1024" version="1.1" xmlns="http://www.w3.org/2000/svg" p-id="5791" xmlns:xlink="http://www.w3.org/1999/xlink" width="200" height="200"><defs><style type="text/css"></style></defs><path d="M919.552 566.272c9.216 16.384-43.008 77.312-145.408 135.68-46.592 26.112-93.184 46.08-131.072 55.296-41.472 10.24-57.344 4.608-60.416-0.512-9.216-16.384 43.008-77.312 145.408-135.68 46.592-26.112 93.184-46.08 131.072-55.296 16.896-4.096 29.696-5.632 38.4-5.632 13.824 0 19.968 3.072 22.016 6.144zM854.528 305.664c13.824 12.8-16.896 87.04-96.768 174.08-79.872 87.04-151.04 123.904-164.864 111.104-4.096-4.096-6.144-20.992 13.312-58.88 17.92-34.816 47.616-75.776 83.456-115.2 79.872-87.04 151.04-123.904 164.864-111.104zM565.248 36.864c18.944 0 46.592 75.264 46.592 193.536 0 118.272-27.648 193.536-46.592 193.536-18.944 0-46.592-75.264-46.592-193.536 0-118.272 27.648-193.536 46.592-193.536zM394.752 621.056c102.912 58.368 154.624 119.296 145.408 135.68-3.072 5.12-18.944 10.752-60.416 0.512-37.888-9.216-84.48-29.184-131.072-55.296-102.912-57.856-154.624-119.296-145.408-135.68 1.536-3.072 8.192-6.144 21.504-6.144 9.216 0 22.016 1.536 38.912 5.632 37.888 9.216 84.48 29.184 131.072 55.296zM530.432 531.968c19.456 37.888 17.408 54.784 12.8 58.88-4.096 4.096-20.992 4.608-57.344-17.92-33.28-20.48-71.168-53.76-107.52-93.184-35.84-39.424-65.536-80.384-83.456-115.2-19.456-37.888-17.408-54.784-13.312-58.88 1.536-1.536 4.608-2.56 8.192-2.56 24.064 0 87.04 37.888 156.672 113.664 36.352 39.424 66.048 80.384 83.968 115.2z" fill="#BDEA75" p-id="5792"></path><path d="M936.96 556.032c21.504 38.4-60.928 111.104-153.088 163.328-48.128 27.136-96.256 47.616-136.192 57.344-16.896 4.096-31.744 6.144-44.032 6.144-12.8 0-22.528-2.56-29.696-7.168-0.512 74.24-1.536 148.48-2.56 222.72 0 10.752-16.896 10.752-16.896 0 1.024-77.312 2.048-154.624 2.56-231.424-6.656 10.24-19.456 15.872-38.4 15.872-12.288 0-26.624-2.048-44.032-6.144-39.424-9.728-88.064-30.208-136.192-57.344C245.76 667.136 163.84 594.432 185.344 556.032c10.24-17.92 37.888-21.504 82.944-10.24 39.424 9.728 88.064 30.208 136.192 57.344 71.168 40.448 136.704 93.184 153.088 132.608 0.512-43.52 0.512-87.552 0.512-131.072l-1.024 1.024c-5.632 5.12-12.8 7.68-21.504 7.68-15.36 0-35.328-7.68-60.416-23.552C440.32 568.32 400.896 534.016 363.52 493.568c-37.376-40.96-68.096-83.456-86.528-119.296-20.992-40.96-24.064-69.12-8.704-82.944 32.256-29.696 121.856 34.304 193.536 112.128 37.376 40.96 68.096 82.944 86.528 119.296 3.584 7.168 7.168 14.336 9.728 20.992 0-33.28 0-67.072-0.512-100.352-38.912-11.264-59.392-112.64-59.392-212.992 0-105.984 23.04-214.016 66.56-214.016 44.032 0 66.56 107.52 66.56 214.016 0 98.304-19.456 197.12-56.832 211.968 0 36.864 0.512 73.216 0.512 110.08 3.072-8.704 7.168-18.944 12.8-29.696 9.216-17.92 21.504-37.888 36.352-58.368s31.744-40.96 50.688-61.44c71.68-78.336 161.28-141.824 193.536-112.128 32.256 29.696-23.552 124.416-95.232 202.752-59.392 65.024-131.072 119.808-172.544 119.808-8.704 0-15.872-2.56-20.992-7.68-1.536-1.536-3.072-3.072-4.096-4.608 0 39.424 0 78.336-0.512 117.76 25.088-36.864 81.92-80.896 143.36-115.2 48.128-27.136 96.256-47.616 136.192-57.344 44.544-11.264 72.192-8.192 82.432 9.728z m-163.328 145.92c102.912-57.856 155.136-119.296 145.408-135.68-1.536-3.072-8.192-6.144-21.504-6.144-9.216 0-22.016 1.536-38.4 5.632-37.888 9.216-84.48 29.184-131.072 55.296-102.912 58.368-155.136 119.296-145.408 135.68 3.072 5.12 18.944 10.752 60.416 0.512 37.888-9.216 83.968-29.184 130.56-55.296zM757.76 479.744c79.872-87.04 110.592-161.28 96.768-174.08-13.824-12.8-84.992 24.064-164.864 111.104-36.352 39.424-66.048 80.384-83.456 115.2-19.456 37.888-17.408 54.784-13.312 58.88 13.824 12.8 84.992-24.064 164.864-111.104zM611.328 230.4c0-118.272-27.648-193.536-46.592-193.536-18.944 0-46.592 75.264-46.592 193.536 0 118.272 27.648 193.536 46.592 193.536 19.456-0.512 46.592-75.776 46.592-193.536z m-68.096 360.448c4.096-4.096 6.656-20.992-12.8-58.88-17.92-34.816-47.616-75.776-83.456-115.2-69.632-75.776-132.608-113.664-156.672-113.664-3.584 0-6.144 1.024-8.192 2.56-4.096 4.096-6.144 20.992 13.312 58.88C313.344 399.36 343.04 440.32 378.88 479.744c36.352 39.424 74.24 72.192 107.52 93.184 35.84 22.528 52.736 21.504 56.832 17.92z m-3.072 165.888c9.216-16.384-43.008-77.312-145.408-135.68-46.592-26.112-93.184-46.08-131.072-55.296-16.896-4.096-29.696-5.632-38.912-5.632-13.312 0-19.968 3.072-21.504 6.144-9.216 16.384 43.008 77.312 145.408 135.68 46.592 26.112 93.184 46.08 131.072 55.296 41.984 10.24 57.856 4.608 60.416-0.512z" fill="#72AA29" p-id="5793"></path></svg>